<svg enable-background="new 0 0 100 100" height="100" viewBox="0 0 100 100" width="100" xmlns="http://www.w3.org/2000/svg"><g fill="#fff"><path d="m63.6 28.6c-.199-.8-1.1-1.3-1.899-1.1l-40.3 13c-1 .3-1.5 1.4-1.3 2.4l1.6 6.2c.3 1 1.3 1.7 2.3 1.5l10.199-1.4c.3 1.1.8 2.2 1.5 3.1l-8.7 23.6c-.6 1.6.2 3.3 1.8 3.899.3.101.7.2 1 .2 1.2 0 2.4-.8 2.8-2l8.2-22.4c.7.2 1.3.2 2 .2s1.4-.1 2-.2l8.3 22.401c.4 1.2 1.601 2 2.801 2 .3 0 .699-.1 1-.2 1.6-.6 2.399-2.3 1.8-3.899l-8.701-23.701c1.1-1.5 1.8-3.4 1.8-5.4v-.1l14.101-2c.899-.1 1.5-1 1.199-1.9z"/><path d="m79.9 42.7-5.5-20.4c-.4-1.6-2.101-2.6-3.7-2.2-1.601.4-2.601 2.1-2.2 3.7l5.5 20.4c.4 1.6 2.1 2.6 3.7 2.2s2.6-2.1 2.2-3.7z"/></g></svg>